# xmcd
#
# Track frame offsets: 
#        150
#        12012
#        23945
#        34430
#        49860
#        62522
#        79095
#        92092
#        109902
#        126642
#        143600
#        158770
#        169355
#        184570
#        199442
#        215072
#        234987
#        250362
#        262907
#        274322
#        286295
#        300325
#        311952
#
# Disc length: 4423 seconds
#
# Revision: 5
# Processed by: cddbd v1.5.2PL0 Copyright (c) Steve Scherf et al.
# Submitted via: ExactAudioCopy v1.0b3
#
DISCID=52114517
DTITLE=Willie Nelson - Honeysuckle Rose
DYEAR=1980
DGENRE=Country
TTITLE0=On The Road Again - Willie Nelson
TTITLE1=Pick Up The Tempo - Willie Nelson
TTITLE2=Heaven Or Hell - Willie Nelson
TTITLE3=Fiddlin' Around - Johhny Gimble
TTITLE4=Blue Eyes Crying In The Rain - Willie Nelson
TTITLE5=Working Man Blues - Jody Payne
TTITLE6=Jumpin' Cotton Eyed Joe - Johhny Gimble
TTITLE7=Whiskey River - Willie Nelson
TTITLE8=Bloody Mary Morning - Willie Nelson
TTITLE9=Loving You Was Easier  - Willie Nelson and Dyan Cannon
TTITLE10=I Don't Do Windows - Hank Cochran
TTITLE11=Coming Back To Texas - Kenneth Threadgill
TTITLE12=It's Not Supposed To Be That Way - Willie Nelson
TTITLE13=You Show Me Yours (And I'll Show You Mine) - Willie Nelson and 
TTITLE13=Amy Irving
TTITLE14=If You Could Touch Her At All - Willie Nelson
TTITLE15=Angel Flying Too Close To The Ground - Willie Nelson
TTITLE16=I Guess I've Come To Live Here In Your Eyes - Willie Nelson
TTITLE17=Angel Eyes (Angel Eyes) - Willie Nelson and Emmylou Harris
TTITLE18=So You Think You're A Cowboy - Emmylou Harris
TTITLE19=Make The World Go Away - Hank Cochran and Jeannie Seely
TTITLE20=Two Sides To Every Story - Dyan Cannon
TTITLE21=A Song For You - Willie Nelson
TTITLE22=Uncloudy Day - Willie Nelson and Dyan Cannon
EXTD=ID3G:   2
EXTT0=Willie Nelson
EXTT1=Willie Nelson
EXTT2=Willie Nelson
EXTT3=Johnny Gimble
EXTT4=Willie Nelson
EXTT5=Jody Payne
EXTT6=Johnny Gimble
EXTT7=Willie Nelson
EXTT8=Willie Nelson
EXTT9=Willie Nelson/Dyan Cannon
EXTT10=Hank Cochran
EXTT11=Kenneth Threadgill
EXTT12=Willie Nelson
EXTT13=Willie Nelson/Amy Irving
EXTT14=Willie Nelson
EXTT15=Willie Nelson
EXTT16=Willie Nelson
EXTT17=Willie Nelson/Emmylou Harris
EXTT18=Emmylou Harris
EXTT19=Hank Cochran/Jeannie Seely
EXTT20=Dyan Cannon
EXTT21=Willie Nelson
EXTT22=Willie Nelson/Dyan Cannon
PLAYORDER=
